<svg xmlns="http://www.w3.org/2000/svg" xmlns:xlink="http://www.w3.org/1999/xlink" width="500" zoomAndPan="magnify" viewBox="0 0 375 374.999991" height="500" preserveAspectRatio="xMidYMid meet" version="1.0"><defs><g/><clipPath id="cdad395bd1"><path d="M 158 166 L 259.5 166 L 259.5 228 L 158 228 Z M 158 166 " clip-rule="nonzero"/></clipPath><clipPath id="5f8c0e04d7"><path d="M 115.5 84.511719 L 249 84.511719 L 249 234.511719 L 115.5 234.511719 Z M 115.5 84.511719 " clip-rule="nonzero"/></clipPath></defs><rect x="-37.5" width="450" fill="#ffffff" y="-37.499999" height="449.999989" fill-opacity="1"/><rect x="-37.5" width="450" fill="#ffffff" y="-37.499999" height="449.999989" fill-opacity="1"/><g clip-path="url(#cdad395bd1)"><path fill="#00c2cb" d="M 232.078125 202.304688 C 236.582031 194.433594 239.152344 185.3125 239.152344 175.597656 C 239.152344 172.382812 238.871094 169.238281 238.332031 166.179688 C 236.152344 178.304688 229.707031 188.949219 220.601562 196.5 C 215.332031 200.867188 207.492188 199.980469 203.367188 194.519531 L 195.675781 184.324219 C 194.394531 182.628906 192.394531 181.628906 190.269531 181.628906 L 160.953125 181.628906 C 160.945312 181.628906 160.9375 181.632812 160.933594 181.632812 C 158.929688 181.644531 157.636719 183.753906 158.535156 185.546875 L 159.703125 187.871094 C 161.871094 192.191406 166.140625 195.066406 170.960938 195.445312 L 172.699219 195.582031 L 180.300781 196.179688 C 182.453125 196.351562 184.394531 197.539062 185.519531 199.382812 L 188.96875 205.019531 L 190.898438 208.179688 L 201.714844 225.867188 C 201.90625 226.183594 202.148438 226.460938 202.421875 226.691406 C 203.214844 227.351562 204.289062 227.628906 205.328125 227.371094 C 205.335938 227.371094 205.34375 227.367188 205.351562 227.367188 C 233.40625 220.441406 255.015625 197.171875 259.503906 168.238281 C 255.566406 183.082031 245.449219 195.410156 232.078125 202.304688 " fill-opacity="1" fill-rule="nonzero"/></g><g clip-path="url(#5f8c0e04d7)"><path fill="#003479" d="M 183.449219 200.648438 C 182.730469 199.472656 181.484375 198.707031 180.109375 198.597656 L 170.769531 197.859375 C 165.140625 197.417969 160.070312 194.007812 157.535156 188.960938 L 156.429688 186.757812 C 155.644531 185.195312 155.625 183.324219 156.492188 181.800781 C 157.386719 180.230469 159 179.265625 160.789062 179.210938 L 160.953125 179.207031 L 170.339844 179.207031 C 167.277344 174.375 161.761719 171.660156 156.054688 172.191406 L 146.300781 173.101562 C 142.125 173.492188 138.371094 170.613281 137.601562 166.488281 C 137.03125 163.429688 136.730469 160.277344 136.730469 157.054688 C 136.730469 140.714844 144.386719 126.160156 156.300781 116.785156 C 144.496094 124.558594 135.308594 135.984375 130.351562 149.457031 C 134.816406 117.003906 162.65625 92.003906 196.335938 92.003906 C 217.1875 92.003906 235.796875 101.585938 248.011719 116.582031 C 235.027344 97.355469 213.0625 84.695312 188.136719 84.632812 C 148.234375 84.527344 115.578125 117.042969 115.519531 156.945312 C 115.5 170.992188 119.480469 184.105469 126.382812 195.214844 C 126.53125 195.449219 126.671875 195.6875 126.820312 195.917969 L 136.488281 194.28125 C 140.808594 193.550781 144.363281 197.722656 142.894531 201.851562 C 142.851562 201.964844 142.828125 202.027344 142.828125 202.027344 C 149.050781 204.289062 148 210.351562 148 210.351562 C 153.496094 212.859375 151.234375 218.03125 151.234375 218.03125 C 153.175781 218.835938 153.859375 220.40625 154.035156 220.917969 C 154.125 221.183594 154.222656 221.441406 154.324219 221.699219 L 158.082031 231.347656 C 158.730469 233.003906 160.714844 234.359375 162.496094 234.359375 C 164.742188 234.359375 166.296875 232.117188 165.503906 230.011719 L 163.746094 225.332031 L 161.398438 219.085938 C 161.234375 218.648438 161.535156 218.171875 162.007812 218.136719 C 162.320312 218.113281 162.601562 218.316406 162.722656 218.601562 L 165.804688 226.027344 L 168.089844 231.523438 C 168.875 233.414062 170.949219 234.5 172.914062 233.925781 C 175.273438 233.238281 176.445312 230.597656 175.378906 228.390625 C 175.378906 228.386719 175.378906 228.386719 175.378906 228.382812 L 169.730469 216.71875 C 169.488281 216.21875 169.820312 215.628906 170.375 215.578125 C 170.695312 215.546875 171 215.710938 171.152344 215.992188 L 178.023438 228.796875 L 178.875 230.386719 C 179.714844 231.953125 181.554688 232.769531 183.242188 232.210938 C 184.554688 231.777344 185.429688 230.679688 185.660156 229.4375 C 185.800781 228.683594 185.703125 227.871094 185.320312 227.128906 L 179.941406 216.707031 C 179.707031 216.246094 179.878906 215.660156 180.355469 215.460938 C 180.777344 215.285156 181.25 215.46875 181.457031 215.855469 L 187.535156 227.335938 C 188.027344 228.265625 188.757812 228.984375 189.613281 229.457031 C 191.039062 230.246094 192.804688 230.359375 194.382812 229.617188 C 194.683594 229.472656 194.964844 229.300781 195.222656 229.113281 C 197.378906 227.546875 198.054688 224.535156 196.609375 222.171875 L 183.449219 200.648438 " fill-opacity="1" fill-rule="nonzero"/></g><path fill="#00c2cb" d="M 130.914062 205 L 138.519531 203.738281 C 140.800781 203.359375 142.34375 201.203125 141.964844 198.921875 C 141.585938 196.640625 139.429688 195.09375 137.148438 195.472656 L 129.542969 196.734375 C 127.261719 197.113281 125.71875 199.269531 126.097656 201.554688 C 126.476562 203.835938 128.632812 205.378906 130.914062 205 " fill-opacity="1" fill-rule="nonzero"/><path fill="#00c2cb" d="M 145.84375 207.164062 C 145.464844 204.882812 143.308594 203.339844 141.027344 203.71875 L 130.648438 205.703125 C 128.367188 206.082031 126.824219 208.238281 127.203125 210.519531 C 127.578125 212.800781 129.738281 214.34375 132.019531 213.964844 L 142.398438 211.984375 C 144.679688 211.605469 146.222656 209.445312 145.84375 207.164062 " fill-opacity="1" fill-rule="nonzero"/><path fill="#00c2cb" d="M 149.347656 215.789062 C 148.96875 213.503906 146.8125 211.960938 144.53125 212.339844 L 136.925781 213.601562 C 134.644531 213.980469 133.101562 216.136719 133.480469 218.417969 C 133.859375 220.703125 136.015625 222.242188 138.296875 221.867188 L 145.898438 220.605469 C 148.183594 220.226562 149.726562 218.070312 149.347656 215.789062 " fill-opacity="1" fill-rule="nonzero"/><path fill="#00c2cb" d="M 149.808594 220.425781 L 143.566406 221.417969 C 141.285156 221.796875 139.742188 223.953125 140.121094 226.234375 C 140.496094 228.515625 142.65625 230.058594 144.9375 229.683594 L 151.179688 228.6875 C 153.464844 228.308594 155.007812 226.152344 154.628906 223.871094 C 154.25 221.589844 152.09375 220.046875 149.808594 220.425781 " fill-opacity="1" fill-rule="nonzero"/><g fill="#003479" fill-opacity="1"><g transform="translate(124.024391, 273.975303)"><g><path d="M 16.109375 -6.375 L 19.015625 -0.71875 C 19.117188 -0.507812 19.128906 -0.332031 19.046875 -0.1875 C 18.972656 -0.0507812 18.820312 0.015625 18.59375 0.015625 L 15.46875 0.015625 C 15.34375 0.015625 15.207031 -0.03125 15.0625 -0.125 C 14.925781 -0.226562 14.820312 -0.359375 14.75 -0.515625 L 12.515625 -5.078125 C 12.285156 -5.046875 12.046875 -5.019531 11.796875 -5 C 11.546875 -4.988281 11.296875 -4.984375 11.046875 -4.984375 L 6.59375 -4.984375 L 6.59375 -0.609375 C 6.59375 -0.421875 6.53125 -0.269531 6.40625 -0.15625 C 6.28125 -0.0390625 6.125 0.015625 5.9375 0.015625 L 3.203125 0.015625 C 3.023438 0.015625 2.875 -0.0390625 2.75 -0.15625 C 2.625 -0.269531 2.5625 -0.421875 2.5625 -0.609375 L 2.5625 -20.953125 C 2.5625 -21.128906 2.625 -21.273438 2.75 -21.390625 C 2.875 -21.503906 3.023438 -21.5625 3.203125 -21.5625 L 3.921875 -21.5625 C 4.335938 -21.5625 4.742188 -21.5625 5.140625 -21.5625 C 5.546875 -21.5625 5.832031 -21.5625 6 -21.5625 L 11.046875 -21.5625 C 12.316406 -21.5625 13.476562 -21.351562 14.53125 -20.9375 C 15.59375 -20.53125 16.515625 -19.953125 17.296875 -19.203125 C 18.078125 -18.460938 18.679688 -17.578125 19.109375 -16.546875 C 19.546875 -15.523438 19.765625 -14.410156 19.765625 -13.203125 C 19.765625 -11.734375 19.4375 -10.410156 18.78125 -9.234375 C 18.125 -8.054688 17.234375 -7.101562 16.109375 -6.375 Z M 10.796875 -8.328125 C 11.753906 -8.328125 12.609375 -8.535156 13.359375 -8.953125 C 14.109375 -9.367188 14.695312 -9.945312 15.125 -10.6875 C 15.550781 -11.425781 15.765625 -12.273438 15.765625 -13.234375 C 15.765625 -13.929688 15.632812 -14.570312 15.375 -15.15625 C 15.125 -15.75 14.773438 -16.257812 14.328125 -16.6875 C 13.890625 -17.125 13.367188 -17.460938 12.765625 -17.703125 C 12.160156 -17.941406 11.503906 -18.0625 10.796875 -18.0625 L 6.59375 -18.0625 L 6.59375 -8.328125 Z M 10.796875 -8.328125 "/></g></g></g><g fill="#003479" fill-opacity="1"><g transform="translate(148.468417, 273.975303)"><g><path d="M 20.890625 -0.703125 C 20.984375 -0.492188 20.984375 -0.316406 20.890625 -0.171875 C 20.804688 -0.0351562 20.648438 0.03125 20.421875 0.03125 L 17.359375 0.03125 C 17.203125 0.03125 17.054688 -0.0195312 16.921875 -0.125 C 16.796875 -0.238281 16.703125 -0.375 16.640625 -0.53125 L 15.78125 -2.625 L 5.859375 -2.625 L 5 -0.546875 C 4.925781 -0.390625 4.828125 -0.253906 4.703125 -0.140625 C 4.585938 -0.0351562 4.441406 0.015625 4.265625 0.015625 L 1.21875 0.015625 C 0.976562 0.015625 0.8125 -0.0507812 0.71875 -0.1875 C 0.632812 -0.320312 0.640625 -0.492188 0.734375 -0.703125 L 9.921875 -21.296875 C 9.992188 -21.460938 10.101562 -21.59375 10.25 -21.6875 C 10.40625 -21.789062 10.554688 -21.84375 10.703125 -21.84375 L 10.890625 -21.84375 C 11.054688 -21.84375 11.207031 -21.789062 11.34375 -21.6875 C 11.488281 -21.582031 11.597656 -21.445312 11.671875 -21.28125 Z M 7.265625 -6.0625 L 14.359375 -6.0625 L 10.8125 -14.65625 Z M 7.265625 -6.0625 "/></g></g></g><g fill="#003479" fill-opacity="1"><g transform="translate(172.997622, 273.975303)"><g><path d="M 0.84375 -18.703125 L 0.84375 -20.9375 C 0.84375 -21.351562 1.050781 -21.5625 1.46875 -21.5625 L 16.25 -21.5625 C 16.4375 -21.5625 16.582031 -21.503906 16.6875 -21.390625 C 16.800781 -21.273438 16.859375 -21.125 16.859375 -20.9375 L 16.859375 -18.703125 C 16.859375 -18.273438 16.65625 -18.0625 16.25 -18.0625 L 10.828125 -18.0625 L 10.828125 -0.609375 C 10.828125 -0.191406 10.613281 0.015625 10.1875 0.015625 L 7.453125 0.015625 C 7.035156 0.015625 6.828125 -0.191406 6.828125 -0.609375 L 6.828125 -18.0625 L 1.46875 -18.0625 C 1.269531 -18.0625 1.113281 -18.113281 1 -18.21875 C 0.894531 -18.332031 0.84375 -18.492188 0.84375 -18.703125 Z M 0.84375 -18.703125 "/></g></g></g><g fill="#003479" fill-opacity="1"><g transform="translate(193.594377, 273.975303)"><g><path d="M 6.578125 -21.109375 L 6.578125 -0.453125 C 6.578125 -0.140625 6.414062 0.015625 6.09375 0.015625 L 3.03125 0.015625 C 2.71875 0.015625 2.5625 -0.140625 2.5625 -0.453125 L 2.5625 -21.109375 C 2.5625 -21.429688 2.71875 -21.59375 3.03125 -21.59375 L 6.09375 -21.59375 C 6.414062 -21.59375 6.578125 -21.429688 6.578125 -21.109375 Z M 6.578125 -21.109375 "/></g></g></g><g fill="#003479" fill-opacity="1"><g transform="translate(205.64481, 273.975303)"><g><path d="M 15.359375 -12.0625 C 16.148438 -11.84375 16.859375 -11.472656 17.484375 -10.953125 C 18.109375 -10.441406 18.601562 -9.820312 18.96875 -9.09375 C 19.332031 -8.363281 19.515625 -7.5625 19.515625 -6.6875 C 19.515625 -5.75 19.320312 -4.875 18.9375 -4.0625 C 18.550781 -3.257812 18.015625 -2.550781 17.328125 -1.9375 C 16.648438 -1.320312 15.859375 -0.84375 14.953125 -0.5 C 14.054688 -0.164062 13.082031 0 12.03125 0 L 3.046875 0 C 2.722656 0 2.5625 -0.160156 2.5625 -0.484375 L 2.5625 -21.09375 C 2.5625 -21.40625 2.722656 -21.5625 3.046875 -21.5625 L 11.40625 -21.5625 C 12.320312 -21.5625 13.175781 -21.421875 13.96875 -21.140625 C 14.757812 -20.867188 15.457031 -20.484375 16.0625 -19.984375 C 16.664062 -19.484375 17.132812 -18.898438 17.46875 -18.234375 C 17.800781 -17.578125 17.96875 -16.863281 17.96875 -16.09375 C 17.96875 -15.507812 17.859375 -14.953125 17.640625 -14.421875 C 17.421875 -13.890625 17.113281 -13.421875 16.71875 -13.015625 C 16.320312 -12.609375 15.867188 -12.289062 15.359375 -12.0625 Z M 14.171875 -15.515625 C 14.171875 -15.984375 14.046875 -16.398438 13.796875 -16.765625 C 13.554688 -17.128906 13.226562 -17.414062 12.8125 -17.625 C 12.394531 -17.84375 11.925781 -17.953125 11.40625 -17.953125 L 6.578125 -17.953125 L 6.578125 -13.234375 L 11.40625 -13.234375 C 11.925781 -13.234375 12.394531 -13.320312 12.8125 -13.5 C 13.226562 -13.6875 13.554688 -13.953125 13.796875 -14.296875 C 14.046875 -14.640625 14.171875 -15.046875 14.171875 -15.515625 Z M 11.9375 -3.625 C 12.601562 -3.625 13.203125 -3.769531 13.734375 -4.0625 C 14.273438 -4.351562 14.703125 -4.75 15.015625 -5.25 C 15.335938 -5.75 15.5 -6.3125 15.5 -6.9375 C 15.5 -7.59375 15.335938 -8.140625 15.015625 -8.578125 C 14.703125 -9.023438 14.273438 -9.363281 13.734375 -9.59375 C 13.203125 -9.832031 12.601562 -9.953125 11.9375 -9.953125 L 6.578125 -9.953125 L 6.578125 -3.625 Z M 11.9375 -3.625 "/></g></g></g><g fill="#003479" fill-opacity="1"><g transform="translate(229.350609, 273.975303)"><g><path d="M 20.890625 -0.703125 C 20.984375 -0.492188 20.984375 -0.316406 20.890625 -0.171875 C 20.804688 -0.0351562 20.648438 0.03125 20.421875 0.03125 L 17.359375 0.03125 C 17.203125 0.03125 17.054688 -0.0195312 16.921875 -0.125 C 16.796875 -0.238281 16.703125 -0.375 16.640625 -0.53125 L 15.78125 -2.625 L 5.859375 -2.625 L 5 -0.546875 C 4.925781 -0.390625 4.828125 -0.253906 4.703125 -0.140625 C 4.585938 -0.0351562 4.441406 0.015625 4.265625 0.015625 L 1.21875 0.015625 C 0.976562 0.015625 0.8125 -0.0507812 0.71875 -0.1875 C 0.632812 -0.320312 0.640625 -0.492188 0.734375 -0.703125 L 9.921875 -21.296875 C 9.992188 -21.460938 10.101562 -21.59375 10.25 -21.6875 C 10.40625 -21.789062 10.554688 -21.84375 10.703125 -21.84375 L 10.890625 -21.84375 C 11.054688 -21.84375 11.207031 -21.789062 11.34375 -21.6875 C 11.488281 -21.582031 11.597656 -21.445312 11.671875 -21.28125 Z M 7.265625 -6.0625 L 14.359375 -6.0625 L 10.8125 -14.65625 Z M 7.265625 -6.0625 "/></g></g></g><g fill="#545454" fill-opacity="1"><g transform="translate(153.21889, 289.439097)"><g><path d="M 5.203125 -1.09375 C 5.273438 -1.09375 5.332031 -1.070312 5.375 -1.03125 C 5.425781 -0.988281 5.453125 -0.929688 5.453125 -0.859375 L 5.453125 -0.171875 C 5.453125 -0.117188 5.429688 -0.078125 5.390625 -0.046875 C 5.359375 -0.015625 5.316406 0 5.265625 0 L 0.921875 0 C 0.796875 0 0.734375 -0.0546875 0.734375 -0.171875 L 0.734375 -5.984375 C 0.734375 -6.109375 0.796875 -6.171875 0.921875 -6.171875 L 5.171875 -6.171875 C 5.234375 -6.171875 5.28125 -6.148438 5.3125 -6.109375 C 5.34375 -6.078125 5.359375 -6.035156 5.359375 -5.984375 L 5.359375 -5.265625 C 5.359375 -5.140625 5.296875 -5.078125 5.171875 -5.078125 L 1.890625 -5.078125 L 1.890625 -3.375 L 4.453125 -3.375 C 4.523438 -3.375 4.578125 -3.359375 4.609375 -3.328125 C 4.648438 -3.296875 4.671875 -3.25 4.671875 -3.1875 L 4.671875 -2.515625 C 4.671875 -2.453125 4.648438 -2.40625 4.609375 -2.375 C 4.578125 -2.34375 4.523438 -2.328125 4.453125 -2.328125 L 1.890625 -2.328125 L 1.890625 -1.09375 Z M 5.203125 -1.09375 "/></g></g></g><g fill="#545454" fill-opacity="1"><g transform="translate(165.723363, 289.439097)"><g><path d="M 5.875 -6.171875 C 5.9375 -6.171875 5.976562 -6.148438 6 -6.109375 C 6.03125 -6.066406 6.03125 -6.019531 6 -5.96875 L 3.359375 -0.09375 C 3.296875 0.03125 3.21875 0.09375 3.125 0.09375 L 3.09375 0.09375 C 2.988281 0.09375 2.910156 0.03125 2.859375 -0.09375 L 0.21875 -5.953125 C 0.1875 -6.015625 0.179688 -6.066406 0.203125 -6.109375 C 0.234375 -6.148438 0.285156 -6.171875 0.359375 -6.171875 L 1.21875 -6.171875 C 1.269531 -6.171875 1.3125 -6.15625 1.34375 -6.125 C 1.382812 -6.09375 1.414062 -6.054688 1.4375 -6.015625 L 3.109375 -2.125 L 4.796875 -6.015625 C 4.816406 -6.054688 4.84375 -6.09375 4.875 -6.125 C 4.90625 -6.15625 4.945312 -6.171875 5 -6.171875 Z M 5.875 -6.171875 "/></g></g></g><g fill="#545454" fill-opacity="1"><g transform="translate(178.584828, 289.439097)"><g><path d="M 5.203125 -1.09375 C 5.273438 -1.09375 5.332031 -1.070312 5.375 -1.03125 C 5.425781 -0.988281 5.453125 -0.929688 5.453125 -0.859375 L 5.453125 -0.171875 C 5.453125 -0.117188 5.429688 -0.078125 5.390625 -0.046875 C 5.359375 -0.015625 5.316406 0 5.265625 0 L 0.921875 0 C 0.796875 0 0.734375 -0.0546875 0.734375 -0.171875 L 0.734375 -5.984375 C 0.734375 -6.109375 0.796875 -6.171875 0.921875 -6.171875 L 5.171875 -6.171875 C 5.234375 -6.171875 5.28125 -6.148438 5.3125 -6.109375 C 5.34375 -6.078125 5.359375 -6.035156 5.359375 -5.984375 L 5.359375 -5.265625 C 5.359375 -5.140625 5.296875 -5.078125 5.171875 -5.078125 L 1.890625 -5.078125 L 1.890625 -3.375 L 4.453125 -3.375 C 4.523438 -3.375 4.578125 -3.359375 4.609375 -3.328125 C 4.648438 -3.296875 4.671875 -3.25 4.671875 -3.1875 L 4.671875 -2.515625 C 4.671875 -2.453125 4.648438 -2.40625 4.609375 -2.375 C 4.578125 -2.34375 4.523438 -2.328125 4.453125 -2.328125 L 1.890625 -2.328125 L 1.890625 -1.09375 Z M 5.203125 -1.09375 "/></g></g></g><g fill="#545454" fill-opacity="1"><g transform="translate(191.089302, 289.439097)"><g><path d="M 6.09375 -6.171875 C 6.175781 -6.171875 6.21875 -6.128906 6.21875 -6.046875 L 6.21875 -0.109375 C 6.21875 -0.046875 6.203125 0 6.171875 0.03125 C 6.148438 0.0625 6.113281 0.078125 6.0625 0.078125 C 6.007812 0.078125 5.960938 0.0625 5.921875 0.03125 C 5.890625 0 5.851562 -0.03125 5.8125 -0.0625 L 1.890625 -3.796875 L 1.890625 -0.125 C 1.890625 -0.0390625 1.84375 0 1.75 0 L 0.875 0 C 0.78125 0 0.734375 -0.0390625 0.734375 -0.125 L 0.734375 -6.0625 C 0.734375 -6.113281 0.742188 -6.15625 0.765625 -6.1875 C 0.796875 -6.226562 0.835938 -6.25 0.890625 -6.25 L 0.90625 -6.25 C 0.945312 -6.25 0.984375 -6.234375 1.015625 -6.203125 C 1.046875 -6.171875 1.082031 -6.132812 1.125 -6.09375 L 5.078125 -2.359375 L 5.078125 -6.046875 C 5.078125 -6.128906 5.125 -6.171875 5.21875 -6.171875 Z M 6.09375 -6.171875 "/></g></g></g><g fill="#545454" fill-opacity="1"><g transform="translate(204.693149, 289.439097)"><g><path d="M 0.234375 -5.34375 L 0.234375 -5.984375 C 0.234375 -6.109375 0.296875 -6.171875 0.421875 -6.171875 L 4.640625 -6.171875 C 4.691406 -6.171875 4.734375 -6.148438 4.765625 -6.109375 C 4.796875 -6.078125 4.8125 -6.035156 4.8125 -5.984375 L 4.8125 -5.34375 C 4.8125 -5.21875 4.753906 -5.15625 4.640625 -5.15625 L 3.09375 -5.15625 L 3.09375 -0.171875 C 3.09375 -0.0546875 3.035156 0 2.921875 0 L 2.125 0 C 2.007812 0 1.953125 -0.0546875 1.953125 -0.171875 L 1.953125 -5.15625 L 0.421875 -5.15625 C 0.367188 -5.15625 0.320312 -5.171875 0.28125 -5.203125 C 0.25 -5.234375 0.234375 -5.28125 0.234375 -5.34375 Z M 0.234375 -5.34375 "/></g></g></g><g fill="#545454" fill-opacity="1"><g transform="translate(216.394387, 289.439097)"><g><path d="M 2.78125 0.09375 C 2.550781 0.09375 2.320312 0.0664062 2.09375 0.015625 C 1.863281 -0.0234375 1.644531 -0.09375 1.4375 -0.1875 C 1.226562 -0.28125 1.035156 -0.390625 0.859375 -0.515625 C 0.691406 -0.640625 0.554688 -0.78125 0.453125 -0.9375 C 0.421875 -0.96875 0.40625 -1.003906 0.40625 -1.046875 C 0.414062 -1.097656 0.441406 -1.148438 0.484375 -1.203125 L 1.015625 -1.71875 C 1.054688 -1.757812 1.097656 -1.773438 1.140625 -1.765625 C 1.191406 -1.753906 1.238281 -1.726562 1.28125 -1.6875 C 1.40625 -1.5625 1.546875 -1.445312 1.703125 -1.34375 C 1.867188 -1.238281 2.039062 -1.15625 2.21875 -1.09375 C 2.394531 -1.03125 2.566406 -1 2.734375 -1 C 3.085938 -1 3.351562 -1.066406 3.53125 -1.203125 C 3.71875 -1.335938 3.8125 -1.523438 3.8125 -1.765625 C 3.8125 -1.910156 3.757812 -2.035156 3.65625 -2.140625 C 3.550781 -2.242188 3.40625 -2.335938 3.21875 -2.421875 C 3.03125 -2.503906 2.796875 -2.59375 2.515625 -2.6875 C 2.222656 -2.789062 1.960938 -2.894531 1.734375 -3 C 1.503906 -3.113281 1.304688 -3.238281 1.140625 -3.375 C 0.984375 -3.519531 0.863281 -3.679688 0.78125 -3.859375 C 0.707031 -4.046875 0.671875 -4.265625 0.671875 -4.515625 C 0.671875 -4.867188 0.753906 -5.175781 0.921875 -5.4375 C 1.097656 -5.695312 1.34375 -5.898438 1.65625 -6.046875 C 1.96875 -6.191406 2.335938 -6.265625 2.765625 -6.265625 C 3.003906 -6.265625 3.234375 -6.234375 3.453125 -6.171875 C 3.679688 -6.109375 3.882812 -6.023438 4.0625 -5.921875 C 4.25 -5.816406 4.40625 -5.695312 4.53125 -5.5625 C 4.570312 -5.507812 4.59375 -5.457031 4.59375 -5.40625 C 4.59375 -5.351562 4.570312 -5.304688 4.53125 -5.265625 L 4.109375 -4.765625 C 4.054688 -4.703125 4 -4.671875 3.9375 -4.671875 C 3.882812 -4.679688 3.828125 -4.707031 3.765625 -4.75 C 3.617188 -4.882812 3.453125 -4.988281 3.265625 -5.0625 C 3.078125 -5.132812 2.894531 -5.171875 2.71875 -5.171875 C 2.425781 -5.171875 2.195312 -5.109375 2.03125 -4.984375 C 1.875 -4.859375 1.796875 -4.703125 1.796875 -4.515625 C 1.796875 -4.359375 1.851562 -4.222656 1.96875 -4.109375 C 2.082031 -4.003906 2.238281 -3.90625 2.4375 -3.8125 C 2.632812 -3.726562 2.851562 -3.644531 3.09375 -3.5625 C 3.34375 -3.488281 3.578125 -3.398438 3.796875 -3.296875 C 4.023438 -3.203125 4.226562 -3.085938 4.40625 -2.953125 C 4.59375 -2.828125 4.738281 -2.664062 4.84375 -2.46875 C 4.945312 -2.28125 5 -2.050781 5 -1.78125 C 5 -1.488281 4.941406 -1.226562 4.828125 -1 C 4.722656 -0.769531 4.570312 -0.570312 4.375 -0.40625 C 4.175781 -0.238281 3.941406 -0.113281 3.671875 -0.03125 C 3.398438 0.0507812 3.101562 0.09375 2.78125 0.09375 Z M 2.78125 0.09375 "/></g></g></g></svg>